<svg xmlns="http://www.w3.org/2000/svg" style="display: none;">
    <symbol id="arrowDown" viewBox="0 0 16 16"><path d="M12.78 6.22a.75.75 0 010 1.06l-4.25 4.25a.75.75 0 01-1.06 0L3.22 7.28a.75.75 0 011.06-1.06L8 9.94l3.72-3.72a.75.75 0 011.06 0z"></path></symbol>
    <symbol id="arrowUp" viewBox="0 0 16 16"><path d="M3.22 9.78a.75.75 0 010-1.06l4.25-4.25a.75.75 0 011.06 0l4.25 4.25a.75.75 0 01-1.06 1.06L8 6.06 4.28 9.78a.75.75 0 01-1.06 0z"></path></symbol>
    <symbol id="eye" viewBox="0 0 16 16"><path d="M1.679 7.932c.412-.621 1.242-1.75 2.366-2.717C5.175 4.242 6.527 3.5 8 3.5c1.473 0 2.824.742 3.955 1.715 1.124.967 1.954 2.096 2.366 2.717a.119.119 0 010 .136c-.412.621-1.242 1.75-2.366 2.717C10.825 11.758 9.473 12.5 8 12.5c-1.473 0-2.824-.742-3.955-1.715C2.92 9.818 2.09 8.69 1.679 8.068a.119.119 0 010-.136zM8 2c-1.981 0-3.67.992-4.933 2.078C1.797 5.169.88 6.423.43 7.1a1.619 1.619 0 000 1.798c.45.678 1.367 1.932 2.637 3.024C4.329 13.008 6.019 14 8 14c1.981 0 3.67-.992 4.933-2.078 1.27-1.091 2.187-2.345 2.637-3.023a1.619 1.619 0 000-1.798c-.45-.678-1.367-1.932-2.637-3.023C11.671 2.992 9.981 2 8 2zm0 8a2 2 0 100-4 2 2 0 000 4z"></path></symbol>
    <symbol id="pencil" viewBox="0 0 16 16"><path d="M11.013 1.427a1.75 1.75 0 012.474 0l1.086 1.086a1.75 1.75 0 010 2.474l-8.61 8.61c-.21.21-.47.364-.756.445l-3.251.93a.75.75 0 01-.927-.928l.929-3.25a1.75 1.75 0 01.445-.758l8.61-8.61zm1.414 1.06a.25.25 0 00-.354 0L10.811 3.75l1.439 1.44 1.263-1.263a.25.25 0 000-.354l-1.086-1.086zM11.189 6.25L9.75 4.81l-6.286 6.287a.25.25 0 00-.064.108l-.558 1.953 1.953-.558a.249.249 0 00.108-.064l6.286-6.286z"></path></symbol>
    <symbol id="trash" viewBox="0 0 16 16"><path d="M6.5 1.75a.25.25 0 01.25-.25h2.5a.25.25 0 01.25.25V3h-3V1.75zm4.5 0V3h2.25a.75.75 0 010 1.5H2.75a.75.75 0 010-1.5H5V1.75C5 .784 5.784 0 6.75 0h2.5C10.216 0 11 .784 11 1.75zM4.496 6.675a.75.75 0 10-1.492.15l.66 6.6A1.75 1.75 0 005.405 15h5.19c.9 0 1.652-.681 1.741-1.576l.66-6.6a.75.75 0 00-1.492-.149l-.66 6.6a.25.25 0 01-.249.225h-5.19a.25.25 0 01-.249-.225l-.66-6.6z"></path></symbol>
    <symbol id="xCircle" viewBox="0 0 16 16"><path d="M3.404 12.596a6.5 6.5 0 119.192-9.192 6.5 6.5 0 01-9.192 9.192zM2.344 2.343a8 8 0 1011.313 11.314A8 8 0 002.343 2.343zM6.03 4.97a.75.75 0 00-1.06 1.06L6.94 8 4.97 9.97a.75.75 0 101.06 1.06L8 9.06l1.97 1.97a.75.75 0 101.06-1.06L9.06 8l1.97-1.97a.75.75 0 10-1.06-1.06L8 6.94 6.03 4.97z"></path></symbol>
    <symbol id="checkCircleFill" viewBox="0 0 16 16"><path fill-rule="evenodd" d="M8 16A8 8 0 108 0a8 8 0 000 16zm3.78-9.72a.75.75 0 00-1.06-1.06L6.75 9.19 5.28 7.72a.75.75 0 00-1.06 1.06l2 2a.75.75 0 001.06 0l4.5-4.5z"></path></symbol>
    <symbol id="plusCircle" viewBox="0 0 16 16"><path fill-rule="evenodd" d="M1.5 8a6.5 6.5 0 1113 0 6.5 6.5 0 01-13 0zM8 0a8 8 0 100 16A8 8 0 008 0zm.75 4.75a.75.75 0 00-1.5 0v2.5h-2.5a.75.75 0 000 1.5h2.5v2.5a.75.75 0 001.5 0v-2.5h2.5a.75.75 0 000-1.5h-2.5v-2.5z"></path></symbol>
    <symbol id="chevronLeft" viewBox="0 0 16 16"><path fill-rule="evenodd" d="M9.78 12.78a.75.75 0 01-1.06 0L4.47 8.53a.75.75 0 010-1.06l4.25-4.25a.75.75 0 011.06 1.06L6.06 8l3.72 3.72a.75.75 0 010 1.06z"></path></symbol>
    <symbol id="chevronRight" viewBox="0 0 16 16"><path fill-rule="evenodd" d="M6.22 3.22a.75.75 0 011.06 0l4.25 4.25a.75.75 0 010 1.06l-4.25 4.25a.75.75 0 01-1.06-1.06L9.94 8 6.22 4.28a.75.75 0 010-1.06z"></path></symbol>
    <symbol id="triangleLeft" viewBox="0 0 16 16"><path d="M9.573 4.427L6.177 7.823a.25.25 0 000 .354l3.396 3.396a.25.25 0 00.427-.177V4.604a.25.25 0 00-.427-.177z"></path></symbol>
    <symbol id="triangleRight" viewBox="0 0 16 16"><path d="M6.427 4.427l3.396 3.396a.25.25 0 010 .354l-3.396 3.396A.25.25 0 016 11.396V4.604a.25.25 0 01.427-.177z"></path></symbol>
    <symbol id="xCircleFill" viewBox="0 0 16 16"><path fill-rule="evenodd" d="M2.343 13.657A8 8 0 1113.657 2.343 8 8 0 012.343 13.657zM6.03 4.97a.75.75 0 00-1.06 1.06L6.94 8 4.97 9.97a.75.75 0 101.06 1.06L8 9.06l1.97 1.97a.75.75 0 101.06-1.06L9.06 8l1.97-1.97a.75.75 0 10-1.06-1.06L8 6.94 6.03 4.97z"></path></symbol>
    <symbol id="checkCircleFill" viewBox="0 0 16 16"><path fill-rule="evenodd" d="M8 16A8 8 0 108 0a8 8 0 000 16zm3.78-9.72a.75.75 0 00-1.06-1.06L6.75 9.19 5.28 7.72a.75.75 0 00-1.06 1.06l2 2a.75.75 0 001.06 0l4.5-4.5z"></path></symbol>
    <symbol id="blocked" viewBox="0 0 16 16"><path fill-rule="evenodd" d="M4.467.22a.75.75 0 01.53-.22h6.006a.75.75 0 01.53.22l4.247 4.247c.141.14.22.331.22.53v6.006a.75.75 0 01-.22.53l-4.247 4.247a.75.75 0 01-.53.22H4.997a.75.75 0 01-.53-.22L.22 11.533a.75.75 0 01-.22-.53V4.997a.75.75 0 01.22-.53L4.467.22zm.84 1.28L1.5 5.308v5.384L5.308 14.5h5.384l3.808-3.808V5.308L10.692 1.5H5.308zM4 7.75A.75.75 0 014.75 7h6.5a.75.75 0 010 1.5h-6.5A.75.75 0 014 7.75z"></path></symbol>
    <symbol id="gear" viewBox="0 0 16 16"><path fill-rule="evenodd" d="M7.429 1.525a6.593 6.593 0 011.142 0c.036.003.108.036.137.146l.289 1.105c.147.56.55.967.997 1.189.174.086.341.183.501.29.417.278.97.423 1.53.27l1.102-.303c.11-.03.175.016.195.046.219.31.41.641.573.989.014.031.022.11-.059.19l-.815.806c-.411.406-.562.957-.53 1.456a4.588 4.588 0 010 .582c-.032.499.119 1.05.53 1.456l.815.806c.08.08.073.159.059.19a6.494 6.494 0 01-.573.99c-.02.029-.086.074-.195.045l-1.103-.303c-.559-.153-1.112-.008-1.529.27-.16.107-.327.204-.5.29-.449.222-.851.628-.998 1.189l-.289 1.105c-.029.11-.101.143-.137.146a6.613 6.613 0 01-1.142 0c-.036-.003-.108-.037-.137-.146l-.289-1.105c-.147-.56-.55-.967-.997-1.189a4.502 4.502 0 01-.501-.29c-.417-.278-.97-.423-1.53-.27l-1.102.303c-.11.03-.175-.016-.195-.046a6.492 6.492 0 01-.573-.989c-.014-.031-.022-.11.059-.19l.815-.806c.411-.406.562-.957.53-1.456a4.587 4.587 0 010-.582c.032-.499-.119-1.05-.53-1.456l-.815-.806c-.08-.08-.073-.159-.059-.19a6.44 6.44 0 01.573-.99c.02-.029.086-.075.195-.045l1.103.303c.559.153 1.112.008 1.529-.27.16-.107.327-.204.5-.29.449-.222.851-.628.998-1.189l.289-1.105c.029-.11.101-.143.137-.146zM8 0c-.236 0-.47.01-.701.03-.743.065-1.29.615-1.458 1.261l-.29 1.106c-.017.066-.078.158-.211.224a5.994 5.994 0 00-.668.386c-.123.082-.233.09-.3.071L3.27 2.776c-.644-.177-1.392.02-1.82.63a7.977 7.977 0 00-.704 1.217c-.315.675-.111 1.422.363 1.891l.815.806c.05.048.098.147.088.294a6.084 6.084 0 000 .772c.01.147-.038.246-.088.294l-.815.806c-.474.469-.678 1.216-.363 1.891.2.428.436.835.704 1.218.428.609 1.176.806 1.82.63l1.103-.303c.066-.019.176-.011.299.071.213.143.436.272.668.386.133.066.194.158.212.224l.289 1.106c.169.646.715 1.196 1.458 1.26a8.094 8.094 0 001.402 0c.743-.064 1.29-.614 1.458-1.26l.29-1.106c.017-.066.078-.158.211-.224a5.98 5.98 0 00.668-.386c.123-.082.233-.09.3-.071l1.102.302c.644.177 1.392-.02 1.82-.63.268-.382.505-.789.704-1.217.315-.675.111-1.422-.364-1.891l-.814-.806c-.05-.048-.098-.147-.088-.294a6.1 6.1 0 000-.772c-.01-.147.039-.246.088-.294l.814-.806c.475-.469.679-1.216.364-1.891a7.992 7.992 0 00-.704-1.218c-.428-.609-1.176-.806-1.82-.63l-1.103.303c-.066.019-.176.011-.299-.071a5.991 5.991 0 00-.668-.386c-.133-.066-.194-.158-.212-.224L10.16 1.29C9.99.645 9.444.095 8.701.031A8.094 8.094 0 008 0zm1.5 8a1.5 1.5 0 11-3 0 1.5 1.5 0 013 0zM11 8a3 3 0 11-6 0 3 3 0 016 0z"></path></symbol>
    <!-- <symbol id="loader16x16" viewBox="0 0 16 16" transform="rotate(0,16,16) translate(1.6,1.6) scale(0.9,0.9)" d="M10.657013,28.944977C12.35199,29.644989,14.149017,30,16,30L16.015015,32 16,32C13.88501,32,11.830994,31.593994,9.8940125,30.794006z M25.903992,25.894989L27.319,27.307983C25.824005,28.804993,24.080017,29.972992,22.13501,30.781006L21.368011,28.934998C23.069,28.227997,24.595001,27.204987,25.903992,25.894989z M3.0700073,21.380981C3.7789917,23.082001,4.8040161,24.606995,6.1149902,25.914978L4.7030029,27.330994C3.2059937,25.837982,2.0350037,24.095001,1.223999,22.151001z M32,15.938995L32,16C32,18.118988,31.591003,20.177979,30.787018,22.121002L28.938995,21.35498C29.643005,19.656982,30,17.85498,30,16z M1.2000122,9.9100037L3.0490112,10.67099C2.3529968,12.362,2,14.153992,2,16L0,16.031006 0,16C0,13.891998,0.40301514,11.842987,1.2000122,9.9100037z M27.27301,4.6459961C28.77301,6.1359863,29.946991,7.8769836,30.761017,9.8179932L28.916992,10.59198C28.20401,8.8930054,27.177002,7.3699951,25.863007,6.0650024z M9.8340149,1.2309875L10.605011,3.0769958C8.9049988,3.7869873,7.381012,4.8129883,6.0750122,6.1259766L4.6570129,4.7149963C6.1490173,3.2160034,7.8909912,2.0440063,9.8340149,1.2309875z M15.953003,0L16,0C18.10199,0,20.145996,0.40197754,22.075012,1.1940002L21.315002,3.0440063C19.627991,2.3509827,17.839996,2,16,2z"><animateTransform attributeName="transform" attributeType="XML" type="rotate" from="0, 16, 16" to="360, 16, 16" dur="1.5s" repeatCount="indefinite" /></symbol>
    <symbol id="loader24x24" viewBox="0 0 16 16" transform="rotate(0,16,16) translate(1.6,1.6) scale(0.9,0.9)" d="M10.657013,28.944977C12.35199,29.644989,14.149017,30,16,30L16.015015,32 16,32C13.88501,32,11.830994,31.593994,9.8940125,30.794006z M25.903992,25.894989L27.319,27.307983C25.824005,28.804993,24.080017,29.972992,22.13501,30.781006L21.368011,28.934998C23.069,28.227997,24.595001,27.204987,25.903992,25.894989z M3.0700073,21.380981C3.7789917,23.082001,4.8040161,24.606995,6.1149902,25.914978L4.7030029,27.330994C3.2059937,25.837982,2.0350037,24.095001,1.223999,22.151001z M32,15.938995L32,16C32,18.118988,31.591003,20.177979,30.787018,22.121002L28.938995,21.35498C29.643005,19.656982,30,17.85498,30,16z M1.2000122,9.9100037L3.0490112,10.67099C2.3529968,12.362,2,14.153992,2,16L0,16.031006 0,16C0,13.891998,0.40301514,11.842987,1.2000122,9.9100037z M27.27301,4.6459961C28.77301,6.1359863,29.946991,7.8769836,30.761017,9.8179932L28.916992,10.59198C28.20401,8.8930054,27.177002,7.3699951,25.863007,6.0650024z M9.8340149,1.2309875L10.605011,3.0769958C8.9049988,3.7869873,7.381012,4.8129883,6.0750122,6.1259766L4.6570129,4.7149963C6.1490173,3.2160034,7.8909912,2.0440063,9.8340149,1.2309875z M15.953003,0L16,0C18.10199,0,20.145996,0.40197754,22.075012,1.1940002L21.315002,3.0440063C19.627991,2.3509827,17.839996,2,16,2z"><animateTransform attributeName="transform" attributeType="XML" type="rotate" from="0, 16, 16" to="360, 16, 16" dur="1.5s" repeatCount="indefinite" /></symbol> -->
</svg>